<svg width="56" height="40" viewBox="0 0 56 40" fill="none" xmlns="http://www.w3.org/2000/svg">
<rect x="0.25" y="0.25" width="55.5" height="39.5" rx="1.75" fill="white" stroke="#F5F5F5" stroke-width="0.5"/>
<mask id="mask0_217_471" style="mask-type:alpha" maskUnits="userSpaceOnUse" x="0" y="0" width="56" height="40">
<rect x="0.25" y="0.25" width="55.5" height="39.5" rx="1.75" fill="white" stroke="white" stroke-width="0.5"/>
</mask>
<g mask="url(#mask0_217_471)">
<path fill-rule="evenodd" clip-rule="evenodd" d="M0 26.6666H56V13.3333H18.488V10.6666C18.488 10.6666 16.6073 9.33325 14.6667 9.33325C12.726 9.33325 10.6667 10.6666 10.6667 10.6666V13.3333H0V26.6666ZM17.3334 15.9996C17.3334 17.4724 16.1395 18.6663 14.6667 18.6663C13.1939 18.6663 12 17.4724 12 15.9996C12 14.5269 13.1939 13.333 14.6667 13.333C16.1395 13.333 17.3334 14.5269 17.3334 15.9996Z" fill="#0C47B7"/>
<g filter="url(#filter0_d_217_471)">
<path fill-rule="evenodd" clip-rule="evenodd" d="M0 40.0003H56V26.667H0V40.0003Z" fill="#E53B35"/>
</g>
</g>
<defs>
<filter id="filter0_d_217_471" x="0" y="26.667" width="56" height="13.3333" filterUnits="userSpaceOnUse" color-interpolation-filters="sRGB">
<feFlood flood-opacity="0" result="BackgroundImageFix"/>
<feColorMatrix in="SourceAlpha" type="matrix" values="0 0 0 0 0 0 0 0 0 0 0 0 0 0 0 0 0 0 127 0" result="hardAlpha"/>
<feOffset/>
<feColorMatrix type="matrix" values="0 0 0 0 0 0 0 0 0 0 0 0 0 0 0 0 0 0 0.06 0"/>
<feBlend mode="normal" in2="BackgroundImageFix" result="effect1_dropShadow_217_471"/>
<feBlend mode="normal" in="SourceGraphic" in2="effect1_dropShadow_217_471" result="shape"/>
</filter>
</defs>
</svg>
